<?xml version="1.0" standalone="no"?>
<!DOCTYPE svg PUBLIC "-//W3C//DTD SVG 20010904//EN"
 "http://www.w3.org/TR/2001/REC-SVG-20010904/DTD/svg10.dtd">
<svg version="1.0" xmlns="http://www.w3.org/2000/svg"
 width="618.000000pt" height="617.000000pt" viewBox="0 0 618.000000 617.000000"
 preserveAspectRatio="xMidYMid meet">

<g transform="translate(0.000000,617.000000) scale(0.100000,-0.100000)"
fill="#000000" stroke="none">
<path d="M2882 6159 c-218 -14 -464 -59 -686 -125 -328 -97 -674 -272 -957
-485 -163 -123 -161 -119 -48 -119 l94 0 87 65 c374 281 808 459 1313 540 138
22 509 31 672 16 513 -48 997 -230 1419 -533 l123 -88 92 0 c110 0 112 -4 -45
115 -589 445 -1323 664 -2064 614z"/>
<path d="M927 4843 c-13 -38 -170 -473 -347 -968 -178 -495 -327 -902 -331
-905 -4 -3 -59 -18 -123 -34 l-116 -29 0 -84 0 -83 390 0 390 0 0 84 0 84
-112 27 c-62 15 -116 31 -120 34 -4 4 26 109 68 234 l76 227 366 0 367 0 77
-230 76 -229 -51 -15 c-29 -8 -85 -23 -124 -32 l-73 -18 0 -83 0 -83 455 0
455 0 0 84 0 84 -116 28 c-70 17 -119 35 -124 44 -4 8 -159 438 -343 955 -184
517 -338 948 -342 958 -6 15 -25 17 -190 17 l-183 0 -25 -67z m293 -744 c74
-232 136 -428 138 -435 3 -12 -47 -14 -287 -14 -160 0 -291 2 -291 4 0 3 273
821 285 854 2 6 8 12 12 12 5 0 69 -190 143 -421z"/>
<path d="M2350 4797 l0 -85 88 -21 c48 -12 104 -26 125 -32 l37 -10 0 -839 0
-839 -37 -10 c-21 -6 -77 -20 -125 -32 l-88 -21 0 -85 0 -84 653 4 c631 3 655
4 734 25 108 28 187 69 255 131 242 221 260 600 39 820 -74 74 -166 127 -279
161 -40 12 -71 24 -69 26 2 2 31 11 63 20 123 32 236 127 296 252 28 58 33 80
36 164 3 78 0 110 -17 166 -39 131 -133 241 -256 301 -137 67 -115 65 -817 68
l-638 4 0 -84z m1064 -142 c119 -25 194 -85 245 -195 20 -44 25 -70 26 -135 0
-71 -4 -88 -33 -147 -47 -95 -121 -161 -215 -190 -63 -20 -95 -22 -262 -23
l-190 0 -3 353 -2 352 182 0 c121 0 206 -5 252 -15z m71 -928 c112 -32 180
-81 232 -168 108 -180 36 -457 -141 -544 -88 -43 -171 -55 -393 -55 l-203 0 0
396 0 396 228 -5 c155 -3 243 -10 277 -20z"/>
<path d="M4400 4797 l0 -84 103 -22 c56 -12 119 -27 140 -32 l37 -10 -2 -836
-3 -837 -137 -36 -138 -35 0 -82 0 -83 510 0 510 0 0 90 0 89 -32 6 c-18 4
-96 16 -173 28 l-140 23 -3 357 -2 357 204 0 c186 0 205 -2 210 -17 5 -18 46
-247 46 -258 0 -3 54 -5 120 -5 l120 0 0 395 0 395 -119 0 -119 0 -22 -122
c-12 -68 -24 -131 -27 -140 -4 -16 -23 -18 -209 -18 l-204 0 0 375 0 375 378
0 379 0 42 -187 c24 -104 45 -198 48 -210 5 -22 9 -23 129 -23 l124 0 0 315 0
315 -885 0 -885 0 0 -83z"/>
<path d="M1249 2206 c-106 -28 -150 -92 -157 -228 l-4 -88 -43 0 c-42 0 -43
-1 -48 -37 -2 -21 -2 -41 0 -45 2 -5 24 -8 49 -8 l44 0 0 -265 0 -265 66 0 65
0 -7 208 c-4 115 -4 234 0 265 l7 57 74 0 c79 0 85 4 85 61 l0 29 -81 0 -81 0
4 91 c3 85 5 92 31 115 31 27 82 32 137 13 40 -14 50 -3 50 57 l0 41 -52 7
c-69 8 -84 7 -139 -8z"/>
<path d="M5077 2203 c-4 -3 -7 -215 -7 -470 l0 -463 63 0 62 0 2 470 2 470
-58 0 c-32 0 -61 -3 -64 -7z"/>
<path d="M4755 2168 c-29 -16 -35 -28 -35 -70 0 -42 27 -68 72 -68 41 0 68 32
68 79 0 60 -52 89 -105 59z"/>
<path d="M13 1700 l2 -430 65 0 65 0 1 430 2 430 -69 0 -68 0 2 -430z"/>
<path d="M4353 2007 l-53 -22 0 -47 0 -48 -39 0 c-42 0 -51 -11 -51 -61 0 -28
2 -29 45 -29 l45 0 0 -211 c0 -268 8 -290 123 -320 36 -10 52 -9 101 6 60 19
76 38 76 92 0 22 -3 24 -22 18 -13 -3 -44 -9 -69 -12 -39 -4 -50 -2 -68 16
-20 20 -21 31 -21 216 l0 195 90 0 90 0 0 45 0 45 -85 0 -85 0 0 70 c0 79 1
79 -77 47z"/>
<path d="M612 1875 c-29 -13 -68 -36 -86 -50 -39 -30 -50 -22 -40 30 7 39 5
40 -80 29 l-46 -7 0 -303 0 -304 66 0 66 0 -7 213 -8 213 42 36 c74 63 155 72
202 22 23 -25 23 -26 20 -254 l-3 -230 66 0 66 0 0 245 c0 270 -4 291 -58 337
-25 21 -105 48 -140 48 -4 0 -31 -11 -60 -25z"/>
<path d="M1590 1885 c-64 -20 -114 -66 -147 -133 -23 -48 -28 -72 -31 -158 -6
-138 13 -200 76 -263 54 -54 101 -71 192 -71 94 0 138 17 197 76 64 64 87 129
86 254 0 141 -45 235 -136 282 -54 27 -173 34 -237 13z m176 -100 c48 -31 69
-96 69 -220 0 -87 -4 -117 -18 -143 -55 -102 -210 -95 -257 11 -39 89 -38 248
3 309 44 66 138 86 203 43z"/>
<path d="M2815 1876 c-27 -13 -66 -36 -85 -50 l-35 -27 -3 46 c-3 50 -4 50
-84 39 l-46 -6 1 -304 1 -304 63 0 63 0 0 218 c0 248 -3 239 90 281 54 25 81
26 119 6 48 -24 53 -57 45 -292 l-7 -213 66 0 67 0 2 223 3 222 48 32 c85 57
161 53 194 -11 14 -27 15 -59 9 -248 l-7 -218 68 0 68 0 -3 252 c-4 286 -8
306 -76 344 -63 36 -120 38 -185 9 -30 -14 -70 -37 -87 -50 -18 -14 -35 -25
-39 -25 -3 0 -19 15 -36 34 -30 35 -62 50 -129 61 -25 4 -49 -1 -85 -19z"/>
<path d="M3749 1881 c-30 -10 -70 -26 -88 -37 -32 -18 -33 -21 -27 -68 3 -27
7 -51 10 -53 2 -3 23 9 47 27 52 37 138 64 179 55 47 -10 70 -48 70 -116 l0
-58 -37 -10 c-21 -5 -74 -17 -118 -26 -147 -32 -192 -75 -183 -179 3 -34 12
-67 24 -84 26 -36 99 -72 144 -72 38 0 109 39 144 78 26 29 30 28 45 -13 15
-44 60 -69 105 -61 46 9 64 26 71 68 l7 37 -44 3 -43 3 0 75 c1 41 3 134 5
206 4 156 -5 180 -84 219 -61 30 -144 33 -227 6z m191 -385 c0 -49 -3 -57 -32
-82 -96 -80 -188 -62 -188 38 0 20 6 40 13 45 12 8 171 50 195 52 8 1 12 -16
12 -53z"/>
<path d="M5778 1881 c-31 -10 -72 -28 -91 -40 -34 -21 -35 -21 -25 -69 6 -26
12 -48 13 -50 2 -2 22 10 46 27 53 39 132 63 176 55 50 -9 73 -45 73 -115 0
-66 11 -58 -130 -89 -122 -26 -166 -46 -190 -85 -29 -46 -27 -131 3 -176 27
-41 98 -79 147 -79 38 0 109 39 144 78 26 29 31 28 42 -10 13 -43 62 -72 108
-64 46 9 64 25 71 69 l7 37 -41 0 c-27 0 -44 5 -47 14 -3 8 -2 91 3 184 4 93
5 186 2 206 -17 105 -162 154 -311 107z m192 -385 c0 -49 -3 -57 -32 -82 -96
-80 -188 -62 -188 38 0 45 9 51 117 77 109 27 103 29 103 -33z"/>
<path d="M2143 1883 l-31 -4 0 -305 1 -304 64 0 64 0 -3 183 -3 183 28 43 c37
56 80 81 140 81 l47 0 0 65 0 65 -30 0 c-49 0 -93 -24 -138 -75 l-42 -48 0 62
0 61 -32 -2 c-18 0 -47 -3 -65 -5z"/>
<path d="M4763 1883 l-33 -4 0 -305 0 -304 63 0 62 0 1 310 1 310 -31 -2 c-17
0 -46 -3 -63 -5z"/>
<path d="M5413 1868 c-6 -13 -54 -78 -106 -146 l-96 -123 36 -57 c49 -76 128
-187 171 -241 l35 -43 61 6 c33 3 64 10 68 14 5 5 -23 48 -61 96 -93 116 -171
222 -171 231 0 7 60 84 188 243 l34 42 -74 0 c-68 0 -76 -2 -85 -22z"/>
<path d="M1135 704 c71 -63 257 -194 377 -266 485 -287 1002 -429 1568 -431
502 -1 952 104 1393 325 197 98 448 262 572 372 l40 35 -93 1 -93 0 -122 -88
c-658 -472 -1465 -645 -2262 -486 -405 81 -817 264 -1143 509 l-87 65 -95 0
-95 -1 40 -35z"/>
</g>
</svg>
