<svg id="Layer_1" data-name="Layer 1" xmlns="http://www.w3.org/2000/svg" xmlns:xlink="http://www.w3.org/1999/xlink" viewBox="0 0 800 800"><defs><style>.cls-1{fill:none;}.cls-2{clip-path:url(#clip-path);}.cls-3{fill:#343a40;}</style><clipPath id="clip-path" transform="translate(0 0)"><rect class="cls-1" width="800" height="800"/></clipPath></defs><title>CodeBerry_Icon_RGB_Dark</title><g class="cls-2"><g id="a"><path class="cls-3" d="M400,800a407.77,407.77,0,0,1-40.9-2.06,400.4,400.4,0,0,1-39.72-6.07c-12.88-2.63-25.78-6-38.33-9.85s-24.77-8.39-36.75-13.45A401.23,401.23,0,0,1,31.43,555.7c-5.07-12-9.59-24.34-13.45-36.75s-7.22-25.45-9.86-38.34q-4-19.69-6.06-39.71a406.07,406.07,0,0,1,0-81.8,397.45,397.45,0,0,1,6.06-39.72c2.63-12.88,5.95-25.78,9.85-38.33s8.39-24.77,13.45-36.75A401.23,401.23,0,0,1,244.3,31.43c12-5.06,24.34-9.59,36.75-13.45s25.45-7.22,38.34-9.86q19.69-4,39.71-6.06a407.05,407.05,0,0,1,81.8,0,400.4,400.4,0,0,1,39.72,6.07C493.5,10.76,506.4,14.08,519,18s24.78,8.39,36.75,13.45A401.23,401.23,0,0,1,768.57,244.3c5.07,12,9.59,24.34,13.45,36.75s7.22,25.45,9.86,38.34q4,19.69,6.06,39.71a406.07,406.07,0,0,1,0,81.8,397.45,397.45,0,0,1-6.06,39.72c-2.63,12.88-6,25.78-9.85,38.33s-8.39,24.77-13.45,36.75A401.23,401.23,0,0,1,555.7,768.57c-12,5.06-24.35,9.59-36.75,13.45-12.55,3.9-25.45,7.22-38.34,9.86q-19.69,4-39.71,6.06A407.77,407.77,0,0,1,400,800ZM357.32,228h-.73a164.9,164.9,0,0,0-17,1.28l-.9.1a125.53,125.53,0,0,0-22,4.07,109.48,109.48,0,0,0-31.53,14.22,85.22,85.22,0,0,0-12,9.56A141.91,141.91,0,0,0,257,275.63,159,159,0,0,0,242.58,300a265.14,265.14,0,0,0-19.8,57.28c-5.09,22.45-6.14,38.87-8,68.67l-.09,1.46c-1,16.52-.75,34.58,0,71.85v.28c.25,11.54.53,24.62,5.42,41.15a107,107,0,0,0,4.74,14,63,63,0,0,0,8.8,14.71l.06.07a63.2,63.2,0,0,0,8.36,8.48A79.42,79.42,0,0,0,261.7,590a97.45,97.45,0,0,0,21.51,6.71A204.75,204.75,0,0,0,319.86,600l2.59,0c20.92,0,46.07-2.13,74.73-6.33,17.7-2.53,30.13-4.36,41.17-6.71a152.09,152.09,0,0,0,30.27-9.47,204.85,204.85,0,0,0,27.71-14.37,173.15,173.15,0,0,0,37.32-31.48c28.9-32.64,36.75-66.76,41.44-87.16l.2-.86C578,431.09,578,419.38,578,396c0-8.55-.2-14.81-1.2-19.65-1-5.11-3-8.5-6.19-11a20.21,20.21,0,0,0-12-3.94c-.3,0-.61,0-.91,0-1.63,0-3.07.12-4,.2l-.56,0a33.19,33.19,0,0,0-12.3,3.87,42.47,42.47,0,0,0-9.07,6.64,41.51,41.51,0,0,0-7.7,9.6,32.8,32.8,0,0,0-3.4,9.45,28.29,28.29,0,0,1-4.72,11.15,49,49,0,0,1-14,13.24,47.45,47.45,0,0,1-23.61,6.3h-.22a46.42,46.42,0,0,1-18.54-3.85c-12.84-5.68-19.31-16.25-21.44-19.73l-.24-.38a56.24,56.24,0,0,1-6.65-17.9,58.19,58.19,0,0,1-.61-7h0c-.13-3.34-.21-5.36-2.1-7.24-1.51-1.5-3.34-2.12-6.32-2.12-1.35,0-2.8.11-4.71.27h0c-1.7.14-3.83.31-6.2.37-10.32,0-20.92-2.29-28.33-6.12l-.16-.09c-10.28-5.1-17.46-12.27-20.78-20.76-8.13-20.46,6.77-47.8,13.55-58.6L376,278h0l.14-.25a48.92,48.92,0,0,0,6.53-16.36c.84-4,2.59-12.24-1.23-20.1A40.48,40.48,0,0,0,374,233a20.46,20.46,0,0,0-7.8-3.89A37.72,37.72,0,0,0,357.32,228ZM140.41,300,40,400,140.41,500,164,476.5,87.36,400,164,323.5,140.41,300Zm519.2,0L636,323.5,712.65,400,636,476.5,659.6,500,760,400,659.6,300ZM450.67,339.32a6,6,0,0,1,4.13,1.6c1.61,1.74,1.54,3.82,1.42,7.26v0a59.69,59.69,0,0,0,.56,11.87,69.14,69.14,0,0,0,2.46,9.82,75.31,75.31,0,0,0,5.84,13.93c4.11,7.4,8.63,11.48,13.43,12.1a11.2,11.2,0,0,0,1.3.08c8.89,0,17-11.3,22.91-19.56l.47-.65c3.89-5.54,7.9-11.28,10.87-19.89.87-2.52,1.42-4.72,1.86-6.49h0v0c1-4,1.69-6.69,4.55-8.69a10.67,10.67,0,0,1,5.58-1.57c.32,0,.64,0,1,0,2.27,0,5.09.25,8.29.54,11.53.91,15.81,1.34,17.86,1.55.8.1,1.59.16,2.39.18h1.79a75.41,75.41,0,0,0,14-1.33c7.39-1.52,12-4.21,13.87-8,3.78-8.46-6.41-20.46-11.89-26.9l-.19-.23-.52-.62a76.33,76.33,0,0,0-19.31-16.22A41.32,41.32,0,0,1,543,280c-1.46.1-3,.25-4.45.46-7.33.94-18.41,2.35-27.17,10.31-.74.66-1.63,1.51-2.71,2.56-2.17,2.09-5.43,5.23-10.37,9.47a30.82,30.82,0,0,1-12.1,6.63,12,12,0,0,1-3.15.46,8.49,8.49,0,0,1-2.78-.46,10.69,10.69,0,0,1-4.94-4.91h0a11.26,11.26,0,0,1-2.21-4.9,11.84,11.84,0,0,1,1.73-7.61c2.93-5.07,8.28-9.08,12.25-11.54a58.93,58.93,0,0,1,8-4.18,85.85,85.85,0,0,1,33.53-7.16,82.75,82.75,0,0,1,10.31.67,28.6,28.6,0,0,1,2-4.36h0a74.1,74.1,0,0,0,3.31-7,132.4,132.4,0,0,0,4.69-18.17,44.85,44.85,0,0,0-.09-13.39c-1-5.93-3.2-10.44-6.57-13.38s-8.1-4.43-14-4.43a57.86,57.86,0,0,0-16.94,3,112.74,112.74,0,0,0-11.52,4.38l-.91.4h0c-8.4,3.61-13,5.59-16.36,8.44l-.63.59-.07.06-.26.25-.17.16,0,0c-2.78,2.6-4.62,4.32-7.23,4.32-3.36,0-5.59-2.52-8.18-5.43v0l-.1-.11h0c-.81-.91-1.65-1.86-2.58-2.78-4.64-5.08-9.18-7.5-18.24-12.32l0,0-.58-.3-1.15-.62c-6-3.16-17.24-9.05-25.79-9.05h-.47a12.12,12.12,0,0,0-6.59,1.94,11.23,11.23,0,0,0-4.08,5.79,28.65,28.65,0,0,0-1.35,8.67c-.19,6.27.74,13.53,2,22.37l.12.84.12.85v0c1.55,11.26,2.4,17.47,5.93,23.55.63,1.2,1.27,2.28,1.88,3.32l0,0c2.09,3.57,3.74,6.4,2.79,9.42-.9,2.69-3.19,3.91-6.66,5.75l0,0c-1.23.66-2.63,1.4-4.15,2.32a71.92,71.92,0,0,0-16.3,14.49l-.23.28a79.41,79.41,0,0,0-8.82,12c-3.41,6-4.35,11.09-2.8,15,1.37,3.53,4.73,6.06,10.56,7.95,5.26,1.71,11.84,2.77,20.56,4.08l1.25.2.23,0a124.15,124.15,0,0,0,19.52,1.95c1.91,0,3.85-.07,5.92-.22,2.78-.2,5.15-.49,7.24-.75h0l.26,0a48.87,48.87,0,0,1,5.79-.54,3.63,3.63,0,0,1,.57,0Zm-143.42,55.5c-.29,0-.51,0-.72,0h-.22a12.71,12.71,0,0,1-8.15-2.95c-5.65-5.13-3.7-15.14-2-24v-.1c1.75-8.68,2.71-13.46,7.14-17.87a22.49,22.49,0,0,1,15.43-6.64,20.31,20.31,0,0,1,3.3.27,20.76,20.76,0,0,1,10.74,5.59,20.47,20.47,0,0,1,5.76,10.59c1.6,8-2.45,14.7-6.16,19.62a39.12,39.12,0,0,1-11.57,10l-.1.06c-4.85,3-8.68,5.36-13.49,5.36Zm-44.12-2.45-.7,0c-.2-.05-.5-.09-.8-.14a8.68,8.68,0,0,1-5.11-2.07c-4.07-3.8-2.57-11.24-1.47-16.67.09-.43.17-.86.26-1.27v-.06C256.37,367,257,363.9,260,361a15.41,15.41,0,0,1,10.23-4.44,12.52,12.52,0,0,1,2.58.29,14.48,14.48,0,0,1,11.57,11.27c1.26,6-2.41,11.06-4.18,13.48h0a23.73,23.73,0,0,1-7.88,7.1h0c-3.24,2.07-5.79,3.71-9.15,3.71Zm24.1-51.5a6.34,6.34,0,0,1-.66,0,9.23,9.23,0,0,1-5.66-2c-1.77-1.54-2.64-3.89-2.68-7.18a44.08,44.08,0,0,1,1.2-9c1-5.52,1.7-9.06,4.68-12a15,15,0,0,1,12.81-4.41A13.82,13.82,0,0,1,308,317.07c1,6.11-2.49,10.92-4.18,13.24a21.42,21.42,0,0,1-6.64,6.18l0,0c-.4.27-.7.47-1,.67-3.23,2.07-5.79,3.7-8.95,3.7Z" transform="translate(0 0)"/></g></g></svg>