<?xml version="1.0" standalone="no"?>
<!DOCTYPE svg PUBLIC "-//W3C//DTD SVG 20010904//EN"
 "http://www.w3.org/TR/2001/REC-SVG-20010904/DTD/svg10.dtd">
<svg version="1.0" xmlns="http://www.w3.org/2000/svg"
 width="709.000000pt" height="709.000000pt" viewBox="0 0 709.000000 709.000000"
 preserveAspectRatio="xMidYMid meet">

<g transform="translate(0.000000,709.000000) scale(0.100000,-0.100000)"
fill="#000000" stroke="none">
<path d="M3230 7084 c-493 -44 -1017 -209 -1446 -457 -829 -479 -1435 -1271
-1667 -2182 -83 -324 -111 -546 -111 -885 0 -250 9 -369 45 -590 199 -1217
1042 -2260 2194 -2713 297 -117 593 -190 930 -229 143 -17 597 -17 740 0 341
40 639 113 930 229 822 327 1481 933 1874 1723 375 754 468 1601 266 2426
-316 1291 -1353 2307 -2655 2602 -273 62 -384 74 -735 77 -176 1 -340 1 -365
-1z m700 -260 c788 -88 1510 -457 2062 -1054 366 -396 635 -893 768 -1421 117
-463 131 -978 39 -1449 -159 -820 -636 -1561 -1317 -2048 -456 -327 -941 -518
-1522 -599 -177 -24 -644 -24 -819 1 -556 78 -1015 253 -1456 554 -310 211
-614 510 -832 817 -540 762 -733 1725 -528 2640 218 972 867 1795 1765 2239
574 284 1195 392 1840 320z"/>
<path d="M3683 6567 l-152 -31 -144 27 c-141 27 -146 27 -232 12 -454 -80
-910 -292 -1301 -607 -656 -529 -1100 -1336 -1308 -2378 -40 -196 -83 -491
-88 -590 l-3 -64 155 -18 c85 -9 171 -19 191 -22 l36 -6 7 116 c13 240 79 611
156 883 274 967 802 1704 1560 2176 36 22 16 -1 -92 -114 -795 -822 -1275
-1799 -1413 -2874 -17 -131 -19 -177 -7 -177 4 -1 103 -13 220 -29 147 -19
215 -24 217 -17 2 6 11 61 20 121 87 572 317 1279 597 1838 193 387 510 847
772 1122 l86 90 -114 -170 c-501 -750 -850 -1551 -1034 -2375 -35 -155 -87
-460 -98 -567 l-7 -73 237 -1 c130 -1 242 -2 249 -3 8 -1 13 18 15 59 5 124
34 406 58 567 114 773 365 1544 716 2201 74 140 188 337 193 337 2 0 -27 -64
-64 -142 -329 -689 -526 -1400 -606 -2188 -18 -178 -41 -755 -32 -792 l7 -28
179 0 c98 0 200 3 226 7 l47 6 -6 51 c-14 121 -18 590 -7 781 35 606 152 1258
345 1920 59 202 149 470 141 420 -2 -16 -18 -118 -34 -225 -161 -1045 -228
-1766 -218 -2361 5 -310 15 -428 50 -564 l13 -50 210 -7 c115 -3 261 -4 325
-1 l116 6 21 91 c48 209 57 317 57 726 0 384 -5 483 -46 883 -36 363 -111 896
-200 1421 -16 98 -28 183 -27 188 4 10 138 -399 184 -557 251 -878 372 -1774
335 -2484 -7 -122 -9 -226 -6 -230 4 -3 106 -8 227 -10 l221 -3 -6 318 c-6
321 -19 501 -58 779 -92 670 -309 1385 -590 1948 -33 64 -57 117 -55 117 5 0
102 -164 173 -295 438 -799 731 -1802 795 -2716 9 -138 14 -169 26 -164 7 3
119 5 249 5 l235 0 -7 63 c-14 125 -75 470 -111 624 -188 812 -533 1595 -1030
2338 l-114 170 71 -75 c591 -628 1036 -1490 1289 -2496 43 -169 91 -406 110
-541 12 -81 13 -82 39 -77 14 2 113 16 220 29 107 14 196 27 199 29 2 2 -4 67
-13 143 -119 983 -527 1887 -1208 2678 -52 61 -151 168 -220 238 -69 70 -123
127 -120 127 14 0 270 -178 368 -256 211 -168 461 -431 625 -658 427 -594 707
-1396 766 -2194 6 -78 9 -92 23 -88 9 2 91 12 184 22 92 10 171 21 177 24 11
7 -20 264 -60 496 -175 1007 -559 1799 -1143 2361 -392 376 -889 647 -1387
756 -178 39 -205 40 -377 4z m-18 -2164 c-20 -204 -74 -302 -150 -273 -45 17
-76 108 -91 268 l-7 72 128 0 127 0 -7 -67z"/>
<path d="M2835 2544 c-33 -7 -66 -13 -72 -13 -7 -1 -13 -10 -13 -20 0 -14 8
-21 28 -23 l27 -3 3 -327 2 -328 50 0 50 0 0 159 0 159 31 11 c57 20 105 14
128 -15 19 -24 21 -40 21 -171 l0 -144 48 3 47 3 3 160 c1 88 0 170 -3 183 -7
30 -62 62 -107 62 -20 0 -63 -8 -97 -19 -33 -10 -63 -16 -66 -13 -3 3 -5 81
-5 173 0 92 -3 170 -7 172 -5 2 -35 -2 -68 -9z"/>
<path d="M4835 2544 c-33 -7 -66 -13 -73 -13 -23 -1 -8 -35 18 -41 l25 -6 5
-324 5 -325 50 0 50 0 3 351 c2 274 -1 354 -10 361 -9 7 -33 6 -73 -3z"/>
<path d="M1586 2459 c-32 -5 -61 -10 -63 -12 -11 -11 12 -36 35 -39 l27 -3 3
-281 2 -281 176 -7 c124 -5 180 -4 189 4 14 12 35 93 35 135 0 38 -27 30 -50
-14 -31 -61 -52 -71 -152 -71 l-88 0 -2 288 -3 287 -25 1 c-14 1 -52 -2 -84
-7z"/>
<path d="M2226 2462 c-6 -10 -46 -167 -46 -181 0 -6 8 -11 19 -11 13 0 34 27
70 90 28 49 51 94 51 100 0 12 -86 14 -94 2z"/>
<path d="M2535 2336 c-39 -11 -40 -12 -43 -64 -3 -50 -4 -52 -33 -52 -24 0
-29 -4 -29 -25 0 -21 5 -25 30 -25 l30 0 0 -141 0 -141 29 -29 c24 -24 38 -29
78 -29 26 0 70 8 96 17 38 14 47 21 45 38 -2 12 -10 19 -18 16 -61 -14 -88
-13 -109 8 -19 19 -21 32 -21 140 0 133 -2 131 83 131 33 0 37 3 37 25 0 24
-3 25 -60 25 l-60 0 0 54 c0 30 -3 57 -7 59 -5 2 -26 -1 -48 -7z"/>
<path d="M3785 2335 c-22 -8 -41 -15 -42 -15 -2 0 -3 -22 -3 -50 0 -49 -1 -50
-30 -50 -25 0 -30 -4 -30 -25 0 -21 5 -25 30 -25 l30 0 0 -125 c0 -137 12
-185 51 -205 28 -15 122 -8 171 13 30 12 36 19 31 37 -4 15 -11 19 -22 15 -46
-19 -86 -17 -106 5 -17 19 -20 39 -23 140 l-4 117 32 7 c18 3 48 6 67 6 30 0
34 3 31 23 -3 20 -9 22 -65 25 l-63 3 0 59 c0 33 -3 60 -7 60 -5 -1 -26 -7
-48 -15z"/>
<path d="M4535 2336 c-39 -11 -40 -12 -43 -64 -3 -50 -4 -52 -33 -52 -24 0
-29 -4 -29 -25 0 -21 5 -25 30 -25 l30 0 0 -132 c0 -186 22 -218 138 -205 26
2 64 12 85 21 32 14 36 19 27 36 -9 16 -15 18 -36 10 -40 -15 -72 -12 -94 10
-18 18 -20 33 -20 139 0 133 -2 131 83 131 33 0 37 3 37 25 0 24 -3 25 -60 25
l-60 0 0 54 c0 30 -3 57 -7 59 -5 2 -26 -1 -48 -7z"/>
<path d="M2165 2235 c-5 -2 -28 -9 -50 -14 -56 -15 -68 -25 -61 -49 6 -19 9
-19 53 -6 96 29 146 11 157 -57 l7 -37 -63 -7 c-35 -4 -80 -11 -100 -16 -85
-22 -119 -130 -59 -190 25 -24 38 -29 79 -29 27 0 69 7 93 15 38 14 44 14 51
0 6 -10 24 -15 53 -15 l45 0 0 148 c0 226 -19 263 -134 261 -33 0 -65 -2 -71
-4z m93 -272 c-3 -55 -4 -57 -37 -66 -67 -17 -112 19 -97 78 8 31 35 43 94 44
l43 1 -3 -57z"/>
<path d="M3363 2219 c-65 -20 -69 -24 -54 -48 8 -12 18 -13 61 -3 28 7 63 12
76 12 35 0 74 -42 74 -79 0 -29 -1 -29 -67 -36 -122 -13 -183 -56 -183 -130 0
-89 93 -130 205 -90 35 13 41 13 52 -1 8 -11 24 -14 54 -12 l43 3 -3 159 c-1
87 -6 169 -11 181 -5 12 -21 32 -36 44 -35 27 -125 28 -211 0z m157 -253 c0
-53 -1 -55 -36 -66 -45 -15 -79 -6 -100 26 -14 20 -15 30 -5 50 13 30 42 43
99 43 l42 1 0 -54z"/>
<path d="M4165 2235 c-5 -2 -28 -9 -50 -14 -56 -15 -68 -25 -61 -49 6 -19 9
-19 53 -6 96 29 146 11 158 -57 l7 -37 -64 -7 c-93 -10 -136 -25 -164 -58 -39
-47 -25 -139 25 -167 28 -15 102 -12 152 5 38 14 44 14 51 0 6 -10 24 -15 53
-15 l45 0 0 155 c0 221 -19 256 -135 254 -33 0 -64 -2 -70 -4z m99 -267 c-4
-29 -10 -57 -14 -61 -4 -5 -26 -11 -48 -14 -32 -4 -44 -1 -61 16 -21 21 -27
56 -13 77 14 21 48 33 95 34 l48 0 -7 -52z"/>
<path d="M5100 2224 c-65 -18 -74 -25 -66 -52 6 -19 9 -19 53 -6 58 17 104 18
127 1 18 -13 39 -84 27 -91 -3 -2 -41 -9 -84 -15 -43 -6 -87 -15 -97 -21 -65
-35 -82 -130 -31 -181 25 -24 38 -29 79 -29 27 0 69 7 93 15 38 14 44 14 51 0
6 -10 24 -15 52 -15 l43 0 2 146 c2 226 -13 257 -127 261 -37 1 -92 -5 -122
-13z m138 -261 l-3 -58 -42 -9 c-54 -11 -93 10 -93 52 0 51 26 70 98 71 l43 1
-3 -57z"/>
<path d="M5473 2223 c-41 -9 -63 -19 -63 -29 0 -8 9 -14 19 -14 45 0 51 -21
51 -191 l0 -160 48 3 47 3 3 158 3 158 27 10 c47 18 102 14 126 -10 19 -20 21
-34 24 -172 l4 -150 46 3 47 3 0 173 0 174 -33 29 c-39 35 -77 37 -174 11 -65
-18 -67 -18 -71 0 -6 21 -20 21 -104 1z"/>
<path d="M2027 1590 c-27 -5 -51 -11 -53 -13 -11 -11 11 -36 34 -39 l27 -3 3
-277 2 -278 190 0 c213 0 202 -4 215 80 3 25 9 53 11 63 4 12 0 17 -15 17 -13
0 -28 -15 -43 -42 -29 -53 -73 -70 -173 -66 l-70 3 -3 118 -3 117 105 0 c98 0
105 1 111 21 12 35 -7 42 -114 37 l-101 -4 0 113 0 113 88 0 c99 0 120 -9 137
-61 7 -19 19 -35 28 -37 15 -3 17 7 17 72 l0 76 -172 -1 c-95 -1 -195 -5 -221
-9z"/>
<path d="M3893 1479 c-32 -9 -33 -11 -33 -64 0 -54 0 -55 -30 -55 -23 0 -30
-4 -30 -20 0 -16 7 -20 30 -20 l30 0 0 -141 0 -141 34 -34 c41 -41 74 -44 163
-13 51 17 60 23 56 39 -5 17 -12 19 -63 13 -82 -8 -90 6 -90 159 l0 118 60 0
c47 0 60 3 60 15 0 8 0 18 0 23 0 4 -26 9 -57 12 l-58 5 -3 58 c-3 62 -6 64
-69 46z"/>
<path d="M2640 1381 c-125 -25 -178 -155 -100 -244 l28 -32 -24 -30 c-26 -32
-30 -65 -14 -96 9 -15 5 -27 -15 -56 -65 -97 -3 -186 130 -187 86 0 158 27
216 83 44 43 49 52 49 92 0 75 -54 109 -175 109 -73 0 -135 16 -135 35 0 21
17 28 85 30 73 2 119 25 152 75 25 36 31 106 13 141 -10 18 -7 19 58 19 44 0
73 -5 80 -12 5 -7 40 -82 77 -166 75 -171 75 -171 15 -265 -31 -50 -60 -64
-110 -53 -25 5 -31 2 -36 -18 -13 -55 36 -87 101 -66 49 16 74 53 148 220 35
80 94 205 131 277 36 73 66 135 66 138 0 11 -78 4 -88 -7 -6 -7 -29 -62 -52
-123 -23 -60 -45 -114 -49 -118 -5 -4 -30 49 -57 119 -27 69 -55 129 -63 132
-8 3 -41 0 -74 -7 -48 -10 -61 -10 -68 0 -6 10 -20 10 -72 0 -44 -9 -71 -10
-84 -3 -27 15 -94 21 -133 13z m109 -108 c40 -113 -63 -193 -125 -98 -21 32
-23 107 -4 131 40 48 107 30 129 -33z m29 -349 c23 -3 36 -13 44 -30 10 -22 8
-28 -15 -52 -25 -24 -34 -27 -101 -27 -60 0 -80 4 -103 21 -31 23 -42 67 -22
90 12 14 96 13 197 -2z"/>
<path d="M3579 1381 c-67 -14 -125 -56 -153 -113 -66 -132 2 -283 134 -296 68
-6 223 41 218 66 -3 12 -12 16 -28 14 -91 -11 -149 -6 -176 14 -37 27 -62 63
-66 94 l-3 25 119 7 c65 4 120 9 123 11 13 14 13 77 0 109 -25 60 -88 85 -168
69z m56 -76 c14 -13 25 -33 25 -43 0 -24 -25 -32 -101 -32 -55 0 -56 1 -51 25
5 30 56 75 83 75 11 0 31 -11 44 -25z"/>
<path d="M4320 1381 c-114 -24 -190 -126 -177 -238 10 -88 67 -155 145 -169
68 -13 236 35 230 65 -4 17 -8 17 -103 6 -37 -5 -59 -2 -85 12 -39 20 -80 75
-80 108 0 21 5 22 116 28 128 6 134 9 134 67 0 89 -79 142 -180 121z m55 -76
c51 -50 28 -75 -72 -75 -59 0 -68 14 -37 58 31 45 75 52 109 17z"/>
<path d="M4795 1370 c-87 -23 -85 -23 -85 -5 0 18 -26 19 -103 4 -44 -9 -57
-16 -57 -30 0 -12 9 -19 28 -21 l27 -3 3 -165 c1 -90 6 -168 11 -173 5 -5 28
-6 50 -2 l41 7 0 154 0 155 35 15 c47 19 78 18 106 -5 23 -18 24 -26 29 -173
l5 -153 44 2 c24 1 46 5 50 8 3 4 8 76 10 160 l3 154 31 10 c46 17 73 13 104
-13 l28 -24 2 -149 1 -148 35 1 c69 2 67 -3 67 166 0 182 -10 215 -74 236 -43
14 -117 4 -185 -24 -31 -13 -36 -13 -43 0 -5 9 -25 20 -46 26 -44 12 -32 13
-117 -10z"/>
</g>
</svg>
