<svg width="270" height="234" viewBox="0 0 270 234" fill="none" xmlns="http://www.w3.org/2000/svg">
<g clip-path="url(#clip0_51_24660)">
<path d="M193.105 102.259L188.596 94.4489L18.3359 223.285L193.105 102.259Z" fill="#231F20"/>
<path d="M193.105 102.259L18.3359 223.285L197.633 110.101L193.105 102.259Z" fill="#231F20"/>
<path d="M197.633 110.101L18.3359 223.285L202.161 117.944L197.633 110.101Z" fill="#231F20"/>
<path d="M202.161 117.944L18.3359 223.285L206.69 125.786L202.161 117.944Z" fill="#231F20"/>
<path d="M206.69 125.786L18.3359 223.285L211.212 133.616L206.69 125.786Z" fill="#231F20"/>
<path d="M211.212 133.616L18.3359 223.285C95.9578 191.429 138.499 173.977 216.121 142.121L211.212 133.616Z" fill="#231F20"/>
<path fill-rule="evenodd" clip-rule="evenodd" d="M67.8269 116.486L135.086 -0.0106659L184.583 85.7198L175.265 93.4952L135.086 23.9039L20.8825 221.711L249.255 221.649L210.237 154.069L221.692 149.994L270.001 233.668H0.171875L6.8184 222.156L6.81852 222.156L7.01606 221.814L7.01618 221.814L67.6291 116.829L67.6292 116.828L67.8267 116.487L67.8269 116.486ZM250.797 222.539L135.284 222.585L134.449 222.585L94.2633 222.601H20.2626L18.3354 223.287L18.3355 223.287L18.3355 223.287L18.3354 223.287L18.3363 223.286L20.2624 222.601H20.2626L250.797 222.539ZM18.3356 223.287L18.3355 223.287L18.3367 223.286L19.4171 222.468L19.417 222.468L18.3356 223.287Z" fill="#231F20"/>
</g>
<defs>
<clipPath id="clip0_51_24660">
<rect width="270" height="234" fill="white"/>
</clipPath>
</defs>
</svg>
